 <svg  version="1.0" xmlns="http://www.w3.org/2000/svg"  width="300" height="322" viewBox="0 0 300.000000 322.000000"  preserveAspectRatio="xMidYMid meet"> 
    <g transform="translate(0.000000,322.000000) scale(0.100000,-0.100000)" fill="#498379" stroke="none">   
        <path d="M0 1610 l0 -1610 1500 0 1500 0 0 1610 0 1610 -1500 0 -1500 0 0 -1610z m2690 1150 l0 -170 -435 0 c-239 0 -435 -3 -435 -8 0 -4 58 -90 130 -192 l129 -185 1 -287 c0 -256 -5 -321 -23 -275 -4 11 -181 264 -460 660 -50 70 -93 127 -97 127 -7 0 -51 -62 -280 -390 -71 -102 -166 -238 -212 -304 l-83 -119 -3 292 -2 291 67 98 c37 53 96 137 130 186 35 49 63 93 63 98 0 4 -196 8 -435 8 l-435 0 0 170 0 170 1190 0 1190 0 0 -170z m-2050 -1230 c0 -626 3 -790 13 -790 6 1 106 137 222 303 116 166 279 401 364 522 85 121 176 252 203 290 27 39 52 70 57 70 8 0 83 -105 296 -410 23 -33 102 -145 175 -250 216 -308 271 -386 319 -457 25 -37 52 -68 59 -68 9 0 12 165 12 790 l0 790 165 0 165 0 0 -1065 0 -1065 -189 0 -189 0 -114 163 c-63 89 -217 308 -343 487 -126 179 -254 362 -284 407 -31 45 -61 84 -67 87 -6 2 -84 -102 -175 -232 -90 -129 -225 -322 -299 -429 -74 -106 -180 -258 -235 -337 l-100 -145 -192 -1 -193 0 0 1065 0 1065 165 0 165 0 0 -790z"/>
    </g> 
</svg> 